<svg width="381" height="85" viewBox="0 0 381 85" fill="none" xmlns="http://www.w3.org/2000/svg">
<g clip-path="url(#clip0)">
<path d="M118.9 13.3C117.5 8.1 113.4 4 108.2 2.6C98.7 0 60.7 0 60.7 0C60.7 0 22.7 0 13.2 2.5C8.1 3.9 3.9 8.1 2.5 13.3C0 22.8 0 42.5 0 42.5C0 42.5 0 62.3 2.5 71.7C3.9 76.9 8 81 13.2 82.4C22.8 85 60.7 85 60.7 85C60.7 85 98.7 85 108.2 82.5C113.4 81.1 117.5 77 118.9 71.8C121.4 62.3 121.4 42.6 121.4 42.6C121.4 42.6 121.5 22.8 118.9 13.3Z" fill="#FF0000"/>
<path d="M48.6 60.7L80.2 42.5L48.6 24.3V60.7Z" fill="white"/>
<path d="M176.3 77.4C173.9 75.8 172.2 73.3 171.2 69.8C170.2 66.4 169.7 61.8 169.7 56.2V48.5C169.7 42.8 170.3 38.2 171.4 34.7C172.6 31.2 174.4 28.7 176.8 27.1C179.3 25.5 182.5 24.7 186.5 24.7C190.4 24.7 193.6 25.5 196 27.1C198.4 28.7 200.1 31.3 201.2 34.7C202.3 38.1 202.9 42.7 202.9 48.5V56.2C202.9 61.9 202.4 66.4 201.3 69.9C200.2 73.3 198.5 75.9 196.1 77.5C193.7 79.1 190.4 79.9 186.3 79.9C182.1 79.8 178.7 79 176.3 77.4ZM189.8 69C190.5 67.3 190.8 64.4 190.8 60.5V43.9C190.8 40.1 190.5 37.3 189.8 35.5C189.1 33.7 188 32.9 186.3 32.9C184.7 32.9 183.5 33.8 182.9 35.5C182.2 37.3 181.9 40.1 181.9 43.9V60.5C181.9 64.4 182.2 67.3 182.9 69C183.5 70.7 184.7 71.6 186.4 71.6C188 71.6 189.1 70.8 189.8 69Z" fill="white"/>
<path d="M360.9 56.3V59C360.9 62.4 361 65 361.2 66.7C361.4 68.4 361.8 69.7 362.5 70.4C363.1 71.2 364.1 71.6 365.5 71.6C367.3 71.6 368.5 70.9 369.2 69.5C369.9 68.1 370.2 65.8 370.3 62.5L380.6 63.1C380.7 63.6 380.7 64.2 380.7 65C380.7 69.9 379.4 73.6 376.7 76C374 78.4 370.2 79.6 365.3 79.6C359.4 79.6 355.3 77.7 352.9 74C350.5 70.3 349.3 64.6 349.3 56.8V47.5C349.3 39.5 350.5 33.7 353 30C355.5 26.3 359.7 24.5 365.6 24.5C369.7 24.5 372.9 25.3 375.1 26.8C377.3 28.3 378.8 30.7 379.7 33.8C380.6 37 381 41.4 381 47V56.1H360.9V56.3ZM362.4 33.9C361.8 34.7 361.4 35.9 361.2 37.6C361 39.3 360.9 41.9 360.9 45.4V49.2H369.7V45.4C369.7 42 369.6 39.4 369.4 37.6C369.2 35.8 368.7 34.6 368.1 33.9C367.5 33.2 366.5 32.8 365.3 32.8C363.9 32.7 363 33.1 362.4 33.9Z" fill="white"/>
<path d="M147.1 55.3L133.5 6H145.4L150.2 28.3C151.4 33.8 152.3 38.5 152.9 42.4H153.2C153.6 39.6 154.5 35 155.9 28.4L160.9 6H172.8L159 55.3V78.9H147.2V55.3H147.1Z" fill="white"/>
<path d="M241.6 25.7V79H232.2L231.2 72.5H230.9C228.4 77.4 224.5 79.9 219.4 79.9C215.9 79.9 213.3 78.7 211.6 76.4C209.9 74.1 209.1 70.5 209.1 65.5V25.7H221.1V64.8C221.1 67.2 221.4 68.9 221.9 69.9C222.4 70.9 223.3 71.4 224.5 71.4C225.5 71.4 226.5 71.1 227.5 70.4C228.5 69.8 229.2 69 229.6 68V25.7H241.6Z" fill="white"/>
<path d="M303.1 25.7V79H293.7L292.7 72.5H292.4C289.9 77.4 286 79.9 280.9 79.9C277.4 79.9 274.8 78.7 273.1 76.4C271.4 74.1 270.6 70.5 270.6 65.5V25.7H282.6V64.8C282.6 67.2 282.9 68.9 283.4 69.9C283.9 70.9 284.8 71.4 286 71.4C287 71.4 288 71.1 289 70.4C290 69.8 290.7 69 291.1 68V25.7H303.1Z" fill="white"/>
<path d="M274.2 15.7H262.3V78.9H250.6V15.7H238.7V6H274.2V15.7V15.7Z" fill="white"/>
<path d="M342.8 34.2C342.1 30.8 340.9 28.4 339.3 26.9C337.7 25.4 335.4 24.6 332.6 24.6C330.4 24.6 328.3 25.2 326.4 26.5C324.5 27.7 323 29.4 322 31.4H321.9V3.3H310.3V78.9H320.2L321.4 73.9H321.7C322.6 75.7 324 77.1 325.9 78.2C327.8 79.2 329.8 79.8 332.1 79.8C336.2 79.8 339.1 77.9 341 74.2C342.9 70.5 343.9 64.6 343.9 56.7V48.3C343.8 42.2 343.5 37.5 342.8 34.2ZM331.8 55.9C331.8 59.8 331.6 62.8 331.3 65C331 67.2 330.4 68.8 329.7 69.7C328.9 70.6 327.9 71.1 326.7 71.1C325.7 71.1 324.8 70.9 324 70.4C323.2 69.9 322.5 69.2 322 68.3V38.1C322.4 36.7 323.1 35.5 324.1 34.5C325.1 33.6 326.2 33.1 327.3 33.1C328.5 33.1 329.5 33.6 330.1 34.5C330.8 35.5 331.2 37.1 331.5 39.3C331.8 41.6 331.9 44.8 331.9 48.9V55.9H331.8Z" fill="white"/>
</g>
<defs>
<clipPath id="clip0">
<rect width="380.9" height="85" fill="white"/>
</clipPath>
</defs>
</svg>
